<svg width="159" height="59" viewBox="0 0 159 59" fill="none" xmlns="http://www.w3.org/2000/svg">
<path d="M72.8082 0.727272V24H67.8878V5.39773H67.7514L62.4219 8.73864V4.375L68.1832 0.727272H72.8082ZM85.294 20.4545V4.36364H89.3622V20.4545H85.294ZM79.2827 14.4432V10.375H95.3736V14.4432H79.2827Z" fill="#FFB742"/>
<path d="M0.68892 43.3636H3.4446L6.09801 48.375H6.21165L8.86506 43.3636H11.6207L7.37642 50.8864V55H4.93324V50.8864L0.68892 43.3636ZM15.0682 55.1705C14.1705 55.1705 13.3977 54.9886 12.75 54.625C12.1061 54.2576 11.6098 53.7386 11.2614 53.0682C10.9129 52.3939 10.7386 51.5966 10.7386 50.6761C10.7386 49.7784 10.9129 48.9905 11.2614 48.3125C11.6098 47.6345 12.1004 47.1061 12.733 46.7273C13.3693 46.3485 14.1155 46.1591 14.9716 46.1591C15.5473 46.1591 16.0833 46.2519 16.5795 46.4375C17.0795 46.6193 17.5152 46.8939 17.8864 47.2614C18.2614 47.6288 18.553 48.0909 18.7614 48.6477C18.9697 49.2008 19.0739 49.8485 19.0739 50.5909V51.2557H11.7045V49.7557H16.7955C16.7955 49.4072 16.7197 49.0985 16.5682 48.8295C16.4167 48.5606 16.2064 48.3504 15.9375 48.1989C15.6723 48.0436 15.3636 47.9659 15.0114 47.9659C14.6439 47.9659 14.3182 48.0511 14.0341 48.2216C13.7538 48.3883 13.5341 48.6136 13.375 48.8977C13.2159 49.178 13.1345 49.4905 13.1307 49.8352V51.2614C13.1307 51.6932 13.2102 52.0663 13.3693 52.3807C13.5322 52.6951 13.7614 52.9375 14.0568 53.108C14.3523 53.2784 14.7027 53.3636 15.108 53.3636C15.3769 53.3636 15.6231 53.3258 15.8466 53.25C16.0701 53.1742 16.2614 53.0606 16.4205 52.9091C16.5795 52.7576 16.7008 52.572 16.7841 52.3523L19.0227 52.5C18.9091 53.0379 18.6761 53.5076 18.3239 53.9091C17.9754 54.3068 17.5246 54.6174 16.9716 54.8409C16.4223 55.0606 15.7879 55.1705 15.0682 55.1705ZM23.142 55.1648C22.5852 55.1648 22.089 55.0682 21.6534 54.875C21.2178 54.678 20.8731 54.3883 20.6193 54.0057C20.3693 53.6193 20.2443 53.1383 20.2443 52.5625C20.2443 52.0777 20.3333 51.6705 20.5114 51.3409C20.6894 51.0114 20.9318 50.7462 21.2386 50.5455C21.5455 50.3447 21.8939 50.1932 22.2841 50.0909C22.678 49.9886 23.0909 49.9167 23.5227 49.875C24.0303 49.822 24.4394 49.7727 24.75 49.7273C25.0606 49.678 25.286 49.6061 25.4261 49.5114C25.5663 49.4167 25.6364 49.2765 25.6364 49.0909V49.0568C25.6364 48.697 25.5227 48.4186 25.2955 48.2216C25.072 48.0246 24.7538 47.9261 24.3409 47.9261C23.9053 47.9261 23.5587 48.0227 23.3011 48.2159C23.0436 48.4053 22.8731 48.6439 22.7898 48.9318L20.5511 48.75C20.6648 48.2197 20.8883 47.7614 21.2216 47.375C21.5549 46.9848 21.9848 46.6856 22.5114 46.4773C23.0417 46.2652 23.6553 46.1591 24.3523 46.1591C24.8371 46.1591 25.3011 46.2159 25.7443 46.3295C26.1913 46.4432 26.5871 46.6193 26.9318 46.858C27.2803 47.0966 27.5549 47.4034 27.7557 47.7784C27.9564 48.1496 28.0568 48.5947 28.0568 49.1136V55H25.7614V53.7898H25.6932C25.553 54.0625 25.3655 54.303 25.1307 54.5114C24.8958 54.7159 24.6136 54.8769 24.2841 54.9943C23.9545 55.108 23.5739 55.1648 23.142 55.1648ZM23.8352 53.4943C24.1913 53.4943 24.5057 53.4242 24.7784 53.2841C25.0511 53.1402 25.2652 52.947 25.4205 52.7045C25.5758 52.4621 25.6534 52.1875 25.6534 51.8807V50.9545C25.5777 51.0038 25.4735 51.0492 25.3409 51.0909C25.2121 51.1288 25.0663 51.1648 24.9034 51.1989C24.7405 51.2292 24.5777 51.2576 24.4148 51.2841C24.2519 51.3068 24.1042 51.3277 23.9716 51.3466C23.6875 51.3883 23.4394 51.4545 23.2273 51.5455C23.0152 51.6364 22.8504 51.7595 22.733 51.9148C22.6155 52.0663 22.5568 52.2557 22.5568 52.483C22.5568 52.8125 22.6761 53.0644 22.9148 53.2386C23.1572 53.4091 23.464 53.4943 23.8352 53.4943ZM29.9347 55V46.2727H32.2812V47.7955H32.3722C32.5313 47.2538 32.7983 46.8447 33.1733 46.5682C33.5483 46.2879 33.9801 46.1477 34.4688 46.1477C34.59 46.1477 34.7206 46.1553 34.8608 46.1705C35.0009 46.1856 35.1241 46.2064 35.2301 46.233V48.3807C35.1165 48.3466 34.9593 48.3163 34.7585 48.2898C34.5578 48.2633 34.3741 48.25 34.2074 48.25C33.8513 48.25 33.5331 48.3277 33.2528 48.483C32.9763 48.6345 32.7566 48.8466 32.5938 49.1193C32.4347 49.392 32.3551 49.7064 32.3551 50.0625V55H29.9347ZM43.7429 48.7614L41.527 48.8977C41.4891 48.7083 41.4077 48.5379 41.2827 48.3864C41.1577 48.2311 40.9929 48.108 40.7884 48.017C40.5876 47.9223 40.3471 47.875 40.0668 47.875C39.6918 47.875 39.3755 47.9545 39.1179 48.1136C38.8603 48.2689 38.7315 48.4773 38.7315 48.7386C38.7315 48.947 38.8149 49.1231 38.9815 49.267C39.1482 49.411 39.4342 49.5265 39.8395 49.6136L41.419 49.9318C42.2675 50.1061 42.9001 50.3864 43.3168 50.7727C43.7334 51.1591 43.9418 51.6667 43.9418 52.2955C43.9418 52.8674 43.7732 53.3693 43.4361 53.8011C43.1027 54.233 42.6444 54.5701 42.0611 54.8125C41.4815 55.0511 40.813 55.1705 40.0554 55.1705C38.9001 55.1705 37.9796 54.9299 37.294 54.4489C36.6122 53.964 36.2126 53.3049 36.0952 52.4716L38.4759 52.3466C38.5478 52.6989 38.7221 52.9678 38.9986 53.1534C39.2751 53.3352 39.6293 53.4261 40.0611 53.4261C40.4853 53.4261 40.8262 53.3447 41.0838 53.1818C41.3452 53.0152 41.4777 52.8011 41.4815 52.5398C41.4777 52.3201 41.3849 52.1402 41.2031 52C41.0213 51.8561 40.741 51.7462 40.3622 51.6705L38.8509 51.3693C37.9986 51.1989 37.3641 50.9034 36.9474 50.483C36.5346 50.0625 36.3281 49.5265 36.3281 48.875C36.3281 48.3144 36.4796 47.8314 36.7827 47.4261C37.0895 47.0208 37.5194 46.7083 38.0724 46.4886C38.6293 46.2689 39.2808 46.1591 40.027 46.1591C41.1293 46.1591 41.9967 46.392 42.6293 46.858C43.2656 47.3239 43.6368 47.9583 43.7429 48.7614ZM59.9077 49.1818C59.9077 50.4508 59.6671 51.5303 59.1861 52.4205C58.7088 53.3106 58.0573 53.9905 57.2315 54.4602C56.4096 54.9261 55.4853 55.1591 54.4588 55.1591C53.4247 55.1591 52.4967 54.9242 51.6747 54.4545C50.8527 53.9848 50.2031 53.3049 49.7259 52.4148C49.2486 51.5246 49.0099 50.447 49.0099 49.1818C49.0099 47.9129 49.2486 46.8333 49.7259 45.9432C50.2031 45.053 50.8527 44.375 51.6747 43.9091C52.4967 43.4394 53.4247 43.2045 54.4588 43.2045C55.4853 43.2045 56.4096 43.4394 57.2315 43.9091C58.0573 44.375 58.7088 45.053 59.1861 45.9432C59.6671 46.8333 59.9077 47.9129 59.9077 49.1818ZM57.4134 49.1818C57.4134 48.3598 57.2902 47.6667 57.044 47.1023C56.8016 46.5379 56.4588 46.1098 56.0156 45.8182C55.5724 45.5265 55.0535 45.3807 54.4588 45.3807C53.8641 45.3807 53.3452 45.5265 52.902 45.8182C52.4588 46.1098 52.1141 46.5379 51.8679 47.1023C51.6255 47.6667 51.5043 48.3598 51.5043 49.1818C51.5043 50.0038 51.6255 50.697 51.8679 51.2614C52.1141 51.8258 52.4588 52.2538 52.902 52.5455C53.3452 52.8371 53.8641 52.983 54.4588 52.983C55.0535 52.983 55.5724 52.8371 56.0156 52.5455C56.4588 52.2538 56.8016 51.8258 57.044 51.2614C57.2902 50.697 57.4134 50.0038 57.4134 49.1818ZM66.3778 46.2727V48.0909H60.9915V46.2727H66.3778ZM62.2244 55V45.642C62.2244 45.0095 62.3475 44.4848 62.5938 44.0682C62.8438 43.6515 63.1847 43.339 63.6165 43.1307C64.0483 42.9223 64.5388 42.8182 65.0881 42.8182C65.4593 42.8182 65.7983 42.8466 66.1051 42.9034C66.4157 42.9602 66.6468 43.0114 66.7983 43.0568L66.3665 44.875C66.2718 44.8447 66.1544 44.8163 66.0142 44.7898C65.8778 44.7633 65.7377 44.75 65.5938 44.75C65.2377 44.75 64.9896 44.8333 64.8494 45C64.7093 45.1629 64.6392 45.392 64.6392 45.6875V55H62.2244ZM71.6051 55V43.3636H79.446V45.392H74.0653V48.1648H79.0426V50.1932H74.0653V52.9716H79.4688V55H71.6051ZM83.3793 46.2727L84.9815 49.3239L86.6236 46.2727H89.1065L86.5781 50.6364L89.1747 55H86.7031L84.9815 51.983L83.2884 55H80.7884L83.3793 50.6364L80.8793 46.2727H83.3793ZM90.544 58.2727V46.2727H92.9304V47.7386H93.0384C93.1444 47.5038 93.2978 47.2652 93.4986 47.0227C93.7031 46.7765 93.9683 46.572 94.294 46.4091C94.6236 46.2424 95.0327 46.1591 95.5213 46.1591C96.1577 46.1591 96.7448 46.3258 97.2827 46.6591C97.8205 46.9886 98.2505 47.4867 98.5724 48.1534C98.8944 48.8163 99.0554 49.6477 99.0554 50.6477C99.0554 51.6212 98.8982 52.4432 98.5838 53.1136C98.2732 53.7803 97.849 54.286 97.3111 54.6307C96.777 54.9716 96.1785 55.142 95.5156 55.142C95.0459 55.142 94.6463 55.0644 94.3168 54.9091C93.991 54.7538 93.724 54.5587 93.5156 54.3239C93.3073 54.0852 93.1482 53.8447 93.0384 53.6023H92.9645V58.2727H90.544ZM92.9134 50.6364C92.9134 51.1553 92.9853 51.608 93.1293 51.9943C93.2732 52.3807 93.4815 52.6818 93.7543 52.8977C94.027 53.1098 94.3584 53.2159 94.7486 53.2159C95.1425 53.2159 95.4759 53.108 95.7486 52.892C96.0213 52.6723 96.2277 52.3693 96.3679 51.983C96.5118 51.5928 96.5838 51.1439 96.5838 50.6364C96.5838 50.1326 96.5137 49.6894 96.3736 49.3068C96.2334 48.9242 96.027 48.625 95.7543 48.4091C95.4815 48.1932 95.1463 48.0852 94.7486 48.0852C94.3546 48.0852 94.0213 48.1894 93.7486 48.3977C93.4796 48.6061 93.2732 48.9015 93.1293 49.2841C92.9853 49.6667 92.9134 50.1174 92.9134 50.6364ZM104.646 55.1705C103.749 55.1705 102.976 54.9886 102.328 54.625C101.684 54.2576 101.188 53.7386 100.839 53.0682C100.491 52.3939 100.317 51.5966 100.317 50.6761C100.317 49.7784 100.491 48.9905 100.839 48.3125C101.188 47.6345 101.679 47.1061 102.311 46.7273C102.947 46.3485 103.694 46.1591 104.55 46.1591C105.125 46.1591 105.661 46.2519 106.158 46.4375C106.658 46.6193 107.093 46.8939 107.464 47.2614C107.839 47.6288 108.131 48.0909 108.339 48.6477C108.548 49.2008 108.652 49.8485 108.652 50.5909V51.2557H101.283V49.7557H106.374C106.374 49.4072 106.298 49.0985 106.146 48.8295C105.995 48.5606 105.785 48.3504 105.516 48.1989C105.25 48.0436 104.942 47.9659 104.589 47.9659C104.222 47.9659 103.896 48.0511 103.612 48.2216C103.332 48.3883 103.112 48.6136 102.953 48.8977C102.794 49.178 102.713 49.4905 102.709 49.8352V51.2614C102.709 51.6932 102.788 52.0663 102.947 52.3807C103.11 52.6951 103.339 52.9375 103.635 53.108C103.93 53.2784 104.281 53.3636 104.686 53.3636C104.955 53.3636 105.201 53.3258 105.425 53.25C105.648 53.1742 105.839 53.0606 105.999 52.9091C106.158 52.7576 106.279 52.572 106.362 52.3523L108.601 52.5C108.487 53.0379 108.254 53.5076 107.902 53.9091C107.554 54.3068 107.103 54.6174 106.55 54.8409C106 55.0606 105.366 55.1705 104.646 55.1705ZM110.232 55V46.2727H112.578V47.7955H112.669C112.828 47.2538 113.095 46.8447 113.47 46.5682C113.845 46.2879 114.277 46.1477 114.766 46.1477C114.887 46.1477 115.018 46.1553 115.158 46.1705C115.298 46.1856 115.421 46.2064 115.527 46.233V48.3807C115.413 48.3466 115.256 48.3163 115.055 48.2898C114.855 48.2633 114.671 48.25 114.504 48.25C114.148 48.25 113.83 48.3277 113.55 48.483C113.273 48.6345 113.054 48.8466 112.891 49.1193C112.732 49.392 112.652 49.7064 112.652 50.0625V55H110.232ZM116.778 55V46.2727H119.199V55H116.778ZM117.994 45.1477C117.634 45.1477 117.326 45.0284 117.068 44.7898C116.814 44.5473 116.688 44.2576 116.688 43.9205C116.688 43.5871 116.814 43.3011 117.068 43.0625C117.326 42.8201 117.634 42.6989 117.994 42.6989C118.354 42.6989 118.661 42.8201 118.915 43.0625C119.172 43.3011 119.301 43.5871 119.301 43.9205C119.301 44.2576 119.172 44.5473 118.915 44.7898C118.661 45.0284 118.354 45.1477 117.994 45.1477ZM125.115 55.1705C124.217 55.1705 123.445 54.9886 122.797 54.625C122.153 54.2576 121.657 53.7386 121.308 53.0682C120.96 52.3939 120.786 51.5966 120.786 50.6761C120.786 49.7784 120.96 48.9905 121.308 48.3125C121.657 47.6345 122.147 47.1061 122.78 46.7273C123.416 46.3485 124.162 46.1591 125.018 46.1591C125.594 46.1591 126.13 46.2519 126.626 46.4375C127.126 46.6193 127.562 46.8939 127.933 47.2614C128.308 47.6288 128.6 48.0909 128.808 48.6477C129.017 49.2008 129.121 49.8485 129.121 50.5909V51.2557H121.751V49.7557H126.842C126.842 49.4072 126.767 49.0985 126.615 48.8295C126.464 48.5606 126.253 48.3504 125.984 48.1989C125.719 48.0436 125.411 47.9659 125.058 47.9659C124.691 47.9659 124.365 48.0511 124.081 48.2216C123.801 48.3883 123.581 48.6136 123.422 48.8977C123.263 49.178 123.181 49.4905 123.178 49.8352V51.2614C123.178 51.6932 123.257 52.0663 123.416 52.3807C123.579 52.6951 123.808 52.9375 124.104 53.108C124.399 53.2784 124.75 53.3636 125.155 53.3636C125.424 53.3636 125.67 53.3258 125.893 53.25C126.117 53.1742 126.308 53.0606 126.467 52.9091C126.626 52.7576 126.748 52.572 126.831 52.3523L129.07 52.5C128.956 53.0379 128.723 53.5076 128.371 53.9091C128.022 54.3068 127.571 54.6174 127.018 54.8409C126.469 55.0606 125.835 55.1705 125.115 55.1705ZM133.121 49.9545V55H130.7V46.2727H133.007V47.8125H133.109C133.303 47.3049 133.626 46.9034 134.081 46.608C134.536 46.3087 135.087 46.1591 135.734 46.1591C136.34 46.1591 136.869 46.2917 137.32 46.5568C137.77 46.822 138.121 47.2008 138.371 47.6932C138.621 48.1818 138.746 48.7652 138.746 49.4432V55H136.325V49.875C136.329 49.3409 136.193 48.9242 135.916 48.625C135.64 48.322 135.259 48.1705 134.774 48.1705C134.448 48.1705 134.161 48.2405 133.911 48.3807C133.664 48.5208 133.471 48.7254 133.331 48.9943C133.195 49.2595 133.125 49.5795 133.121 49.9545ZM144.597 55.1705C143.703 55.1705 142.934 54.9811 142.29 54.6023C141.65 54.2197 141.157 53.6894 140.812 53.0114C140.472 52.3333 140.301 51.553 140.301 50.6705C140.301 49.7765 140.473 48.9924 140.818 48.3182C141.167 47.6402 141.661 47.1117 142.301 46.733C142.941 46.3504 143.703 46.1591 144.585 46.1591C145.347 46.1591 146.013 46.2973 146.585 46.5739C147.157 46.8504 147.61 47.2386 147.943 47.7386C148.277 48.2386 148.46 48.8258 148.494 49.5H146.21C146.146 49.0644 145.975 48.714 145.699 48.4489C145.426 48.1799 145.068 48.0455 144.625 48.0455C144.25 48.0455 143.922 48.1477 143.642 48.3523C143.366 48.553 143.15 48.8466 142.994 49.233C142.839 49.6193 142.761 50.0871 142.761 50.6364C142.761 51.1932 142.837 51.6667 142.989 52.0568C143.144 52.447 143.362 52.7443 143.642 52.9489C143.922 53.1534 144.25 53.2557 144.625 53.2557C144.902 53.2557 145.15 53.1989 145.369 53.0852C145.593 52.9716 145.777 52.8068 145.92 52.5909C146.068 52.3712 146.165 52.108 146.21 51.8011H148.494C148.456 52.4678 148.275 53.0549 147.949 53.5625C147.627 54.0663 147.182 54.4602 146.614 54.7443C146.045 55.0284 145.373 55.1705 144.597 55.1705ZM154.021 55.1705C153.124 55.1705 152.351 54.9886 151.703 54.625C151.059 54.2576 150.563 53.7386 150.214 53.0682C149.866 52.3939 149.692 51.5966 149.692 50.6761C149.692 49.7784 149.866 48.9905 150.214 48.3125C150.563 47.6345 151.054 47.1061 151.686 46.7273C152.322 46.3485 153.069 46.1591 153.925 46.1591C154.5 46.1591 155.036 46.2519 155.533 46.4375C156.033 46.6193 156.468 46.8939 156.839 47.2614C157.214 47.6288 157.506 48.0909 157.714 48.6477C157.923 49.2008 158.027 49.8485 158.027 50.5909V51.2557H150.658V49.7557H155.749C155.749 49.4072 155.673 49.0985 155.521 48.8295C155.37 48.5606 155.16 48.3504 154.891 48.1989C154.625 48.0436 154.317 47.9659 153.964 47.9659C153.597 47.9659 153.271 48.0511 152.987 48.2216C152.707 48.3883 152.487 48.6136 152.328 48.8977C152.169 49.178 152.088 49.4905 152.084 49.8352V51.2614C152.084 51.6932 152.163 52.0663 152.322 52.3807C152.485 52.6951 152.714 52.9375 153.01 53.108C153.305 53.2784 153.656 53.3636 154.061 53.3636C154.33 53.3636 154.576 53.3258 154.8 53.25C155.023 53.1742 155.214 53.0606 155.374 52.9091C155.533 52.7576 155.654 52.572 155.737 52.3523L157.976 52.5C157.862 53.0379 157.629 53.5076 157.277 53.9091C156.929 54.3068 156.478 54.6174 155.925 54.8409C155.375 55.0606 154.741 55.1705 154.021 55.1705Z" fill="white"/>
</svg>
