<svg width="155" height="59" viewBox="0 0 155 59" fill="none" xmlns="http://www.w3.org/2000/svg">
<path d="M66.5668 24.3182C64.8698 24.3182 63.3584 24.0265 62.0327 23.4432C60.7145 22.8523 59.6728 22.0417 58.9077 21.0114C58.1501 19.9735 57.7599 18.7765 57.7372 17.4205H62.6918C62.7221 17.9886 62.9077 18.4886 63.2486 18.9205C63.5971 19.3447 64.0592 19.6742 64.6349 19.9091C65.2107 20.1439 65.8584 20.2614 66.5781 20.2614C67.3281 20.2614 67.991 20.1288 68.5668 19.8636C69.1425 19.5985 69.5933 19.2311 69.919 18.7614C70.2448 18.2917 70.4077 17.75 70.4077 17.1364C70.4077 16.5152 70.2334 15.9659 69.8849 15.4886C69.544 15.0038 69.0516 14.625 68.4077 14.3523C67.7713 14.0795 67.0137 13.9432 66.1349 13.9432H63.9645V10.3295H66.1349C66.8774 10.3295 67.5327 10.2008 68.1009 9.94318C68.6766 9.68561 69.1236 9.32955 69.4418 8.875C69.7599 8.41288 69.919 7.875 69.919 7.26136C69.919 6.67803 69.7789 6.16667 69.4986 5.72727C69.2259 5.2803 68.8395 4.93182 68.3395 4.68182C67.8471 4.43182 67.2713 4.30682 66.6122 4.30682C65.9455 4.30682 65.3357 4.42803 64.7827 4.67045C64.2296 4.9053 63.7865 5.24242 63.4531 5.68182C63.1198 6.12121 62.9418 6.63636 62.919 7.22727H58.2031C58.2259 5.88636 58.6084 4.70454 59.3509 3.68182C60.0933 2.65909 61.0933 1.85985 62.3509 1.28409C63.616 0.700757 65.044 0.40909 66.6349 0.40909C68.241 0.40909 69.6463 0.700757 70.8509 1.28409C72.0554 1.86742 72.991 2.6553 73.6577 3.64773C74.3319 4.63258 74.6652 5.73864 74.6577 6.96591C74.6652 8.26894 74.2599 9.35606 73.4418 10.2273C72.6312 11.0985 71.5743 11.6515 70.2713 11.8864V12.0682C71.9834 12.2879 73.2865 12.8826 74.1804 13.8523C75.0819 14.8144 75.5289 16.0189 75.5213 17.4659C75.5289 18.7917 75.1463 19.9697 74.3736 21C73.6084 22.0303 72.5516 22.8409 71.2031 23.4318C69.8546 24.0227 68.3092 24.3182 66.5668 24.3182ZM86.0128 20.4545V4.36364H90.081V20.4545H86.0128ZM80.0014 14.4432V10.375H96.0923V14.4432H80.0014Z" fill="#FFB742"/>
<path d="M11.3956 47.4375H8.90696C8.86151 47.1155 8.7687 46.8295 8.62855 46.5795C8.4884 46.3258 8.30848 46.1098 8.08878 45.9318C7.86908 45.7538 7.61529 45.6174 7.32741 45.5227C7.04332 45.428 6.73461 45.3807 6.40128 45.3807C5.79901 45.3807 5.27438 45.5303 4.82741 45.8295C4.38045 46.125 4.03385 46.5568 3.78764 47.125C3.54143 47.6894 3.41832 48.375 3.41832 49.1818C3.41832 50.0114 3.54143 50.7083 3.78764 51.2727C4.03764 51.8371 4.38613 52.2633 4.8331 52.5511C5.28007 52.839 5.79711 52.983 6.38423 52.983C6.71378 52.983 7.0187 52.9394 7.29901 52.8523C7.5831 52.7652 7.83499 52.6383 8.05469 52.4716C8.27438 52.3011 8.4562 52.0947 8.60014 51.8523C8.74787 51.6098 8.85014 51.3333 8.90696 51.0227L11.3956 51.0341C11.3312 51.5682 11.1702 52.0833 10.9126 52.5795C10.6589 53.072 10.3161 53.5133 9.88423 53.9034C9.4562 54.2898 8.94484 54.5966 8.35014 54.8239C7.75923 55.0473 7.09067 55.1591 6.34446 55.1591C5.30658 55.1591 4.37855 54.9242 3.56037 54.4545C2.74598 53.9848 2.10204 53.3049 1.62855 52.4148C1.15885 51.5246 0.924006 50.447 0.924006 49.1818C0.924006 47.9129 1.16264 46.8333 1.63991 45.9432C2.11719 45.053 2.76491 44.375 3.5831 43.9091C4.40128 43.4394 5.32173 43.2045 6.34446 43.2045C7.0187 43.2045 7.6437 43.2992 8.21946 43.4886C8.79901 43.678 9.31226 43.9545 9.75923 44.3182C10.2062 44.678 10.5698 45.1193 10.8501 45.642C11.1342 46.1648 11.3161 46.7633 11.3956 47.4375ZM17.0575 55.1705C16.175 55.1705 15.4117 54.983 14.7678 54.608C14.1276 54.2292 13.6333 53.7027 13.2848 53.0284C12.9363 52.3504 12.7621 51.5644 12.7621 50.6705C12.7621 49.7689 12.9363 48.9811 13.2848 48.3068C13.6333 47.6288 14.1276 47.1023 14.7678 46.7273C15.4117 46.3485 16.175 46.1591 17.0575 46.1591C17.9401 46.1591 18.7015 46.3485 19.3416 46.7273C19.9856 47.1023 20.4818 47.6288 20.8303 48.3068C21.1787 48.9811 21.353 49.7689 21.353 50.6705C21.353 51.5644 21.1787 52.3504 20.8303 53.0284C20.4818 53.7027 19.9856 54.2292 19.3416 54.608C18.7015 54.983 17.9401 55.1705 17.0575 55.1705ZM17.0689 53.2955C17.4704 53.2955 17.8056 53.1818 18.0746 52.9545C18.3435 52.7235 18.5462 52.4091 18.6825 52.0114C18.8227 51.6136 18.8928 51.161 18.8928 50.6534C18.8928 50.1458 18.8227 49.6932 18.6825 49.2955C18.5462 48.8977 18.3435 48.5833 18.0746 48.3523C17.8056 48.1212 17.4704 48.0057 17.0689 48.0057C16.6636 48.0057 16.3227 48.1212 16.0462 48.3523C15.7734 48.5833 15.567 48.8977 15.4268 49.2955C15.2905 49.6932 15.2223 50.1458 15.2223 50.6534C15.2223 51.161 15.2905 51.6136 15.4268 52.0114C15.567 52.4091 15.7734 52.7235 16.0462 52.9545C16.3227 53.1818 16.6636 53.2955 17.0689 53.2955ZM22.9268 55V46.2727H25.2337V47.8125H25.3359C25.5178 47.3011 25.8208 46.8977 26.245 46.6023C26.6693 46.3068 27.1768 46.1591 27.7678 46.1591C28.3662 46.1591 28.8757 46.3087 29.2962 46.608C29.7166 46.9034 29.9969 47.3049 30.1371 47.8125H30.228C30.406 47.3125 30.728 46.9129 31.1939 46.6136C31.6636 46.3106 32.2185 46.1591 32.8587 46.1591C33.6731 46.1591 34.334 46.4186 34.8416 46.9375C35.353 47.4527 35.6087 48.1837 35.6087 49.1307V55H33.1939V49.608C33.1939 49.1231 33.0651 48.7595 32.8075 48.517C32.55 48.2746 32.228 48.1534 31.8416 48.1534C31.4022 48.1534 31.0594 48.2936 30.8132 48.5739C30.567 48.8504 30.4439 49.2159 30.4439 49.6705V55H28.0973V49.5568C28.0973 49.1288 27.9742 48.7879 27.728 48.5341C27.4856 48.2803 27.1655 48.1534 26.7678 48.1534C26.4988 48.1534 26.2564 48.2216 26.0405 48.358C25.8284 48.4905 25.6598 48.678 25.5348 48.9205C25.4098 49.1591 25.3473 49.4394 25.3473 49.7614V55H22.9268ZM37.5206 58.2727V46.2727H39.907V47.7386H40.0149C40.121 47.5038 40.2744 47.2652 40.4751 47.0227C40.6797 46.7765 40.9448 46.572 41.2706 46.4091C41.6001 46.2424 42.0092 46.1591 42.4979 46.1591C43.1342 46.1591 43.7214 46.3258 44.2592 46.6591C44.7971 46.9886 45.227 47.4867 45.549 48.1534C45.871 48.8163 46.032 49.6477 46.032 50.6477C46.032 51.6212 45.8748 52.4432 45.5604 53.1136C45.2498 53.7803 44.8255 54.286 44.2876 54.6307C43.7536 54.9716 43.1551 55.142 42.4922 55.142C42.0225 55.142 41.6229 55.0644 41.2933 54.9091C40.9676 54.7538 40.7005 54.5587 40.4922 54.3239C40.2839 54.0852 40.1248 53.8447 40.0149 53.6023H39.9411V58.2727H37.5206ZM39.8899 50.6364C39.8899 51.1553 39.9619 51.608 40.1058 51.9943C40.2498 52.3807 40.4581 52.6818 40.7308 52.8977C41.0036 53.1098 41.335 53.2159 41.7251 53.2159C42.1191 53.2159 42.4524 53.108 42.7251 52.892C42.9979 52.6723 43.2043 52.3693 43.3445 51.983C43.4884 51.5928 43.5604 51.1439 43.5604 50.6364C43.5604 50.1326 43.4903 49.6894 43.3501 49.3068C43.21 48.9242 43.0036 48.625 42.7308 48.4091C42.4581 48.1932 42.1229 48.0852 41.7251 48.0852C41.3312 48.0852 40.9979 48.1894 40.7251 48.3977C40.4562 48.6061 40.2498 48.9015 40.1058 49.2841C39.9619 49.6667 39.8899 50.1174 39.8899 50.6364ZM50.0661 43.3636V55H47.6456V43.3636H50.0661ZM55.9822 55.1705C55.0845 55.1705 54.3118 54.9886 53.6641 54.625C53.0201 54.2576 52.5239 53.7386 52.1754 53.0682C51.8269 52.3939 51.6527 51.5966 51.6527 50.6761C51.6527 49.7784 51.8269 48.9905 52.1754 48.3125C52.5239 47.6345 53.0144 47.1061 53.647 46.7273C54.2834 46.3485 55.0296 46.1591 55.8857 46.1591C56.4614 46.1591 56.9974 46.2519 57.4936 46.4375C57.9936 46.6193 58.4292 46.8939 58.8004 47.2614C59.1754 47.6288 59.4671 48.0909 59.6754 48.6477C59.8838 49.2008 59.9879 49.8485 59.9879 50.5909V51.2557H52.6186V49.7557H57.7095C57.7095 49.4072 57.6338 49.0985 57.4822 48.8295C57.3307 48.5606 57.1205 48.3504 56.8516 48.1989C56.5864 48.0436 56.2777 47.9659 55.9254 47.9659C55.558 47.9659 55.2322 48.0511 54.9482 48.2216C54.6679 48.3883 54.4482 48.6136 54.2891 48.8977C54.13 49.178 54.0485 49.4905 54.0447 49.8352V51.2614C54.0447 51.6932 54.1243 52.0663 54.2834 52.3807C54.4463 52.6951 54.6754 52.9375 54.9709 53.108C55.2663 53.2784 55.6167 53.3636 56.022 53.3636C56.291 53.3636 56.5372 53.3258 56.7607 53.25C56.9841 53.1742 57.1754 53.0606 57.3345 52.9091C57.4936 52.7576 57.6148 52.572 57.6982 52.3523L59.9368 52.5C59.8232 53.0379 59.5902 53.5076 59.2379 53.9091C58.8894 54.3068 58.4387 54.6174 57.8857 54.8409C57.3364 55.0606 56.7019 55.1705 55.9822 55.1705ZM66.2095 46.2727V48.0909H60.9538V46.2727H66.2095ZM62.147 44.1818H64.5675V52.3182C64.5675 52.5417 64.6016 52.7159 64.6697 52.8409C64.7379 52.9621 64.8326 53.0473 64.9538 53.0966C65.0788 53.1458 65.2228 53.1705 65.3857 53.1705C65.4993 53.1705 65.6129 53.161 65.7266 53.142C65.8402 53.1193 65.9273 53.1023 65.9879 53.0909L66.3686 54.892C66.2474 54.9299 66.0769 54.9735 65.8572 55.0227C65.6375 55.0758 65.3705 55.108 65.0561 55.1193C64.4728 55.142 63.9614 55.0644 63.522 54.8864C63.0864 54.7083 62.7474 54.4318 62.505 54.0568C62.2625 53.6818 62.1432 53.2083 62.147 52.6364V44.1818ZM71.6697 55.1705C70.772 55.1705 69.9993 54.9886 69.3516 54.625C68.7076 54.2576 68.2114 53.7386 67.8629 53.0682C67.5144 52.3939 67.3402 51.5966 67.3402 50.6761C67.3402 49.7784 67.5144 48.9905 67.8629 48.3125C68.2114 47.6345 68.7019 47.1061 69.3345 46.7273C69.9709 46.3485 70.7171 46.1591 71.5732 46.1591C72.1489 46.1591 72.6849 46.2519 73.1811 46.4375C73.6811 46.6193 74.1167 46.8939 74.4879 47.2614C74.8629 47.6288 75.1546 48.0909 75.3629 48.6477C75.5713 49.2008 75.6754 49.8485 75.6754 50.5909V51.2557H68.3061V49.7557H73.397C73.397 49.4072 73.3213 49.0985 73.1697 48.8295C73.0182 48.5606 72.808 48.3504 72.5391 48.1989C72.2739 48.0436 71.9652 47.9659 71.6129 47.9659C71.2455 47.9659 70.9197 48.0511 70.6357 48.2216C70.3554 48.3883 70.1357 48.6136 69.9766 48.8977C69.8175 49.178 69.736 49.4905 69.7322 49.8352V51.2614C69.7322 51.6932 69.8118 52.0663 69.9709 52.3807C70.1338 52.6951 70.3629 52.9375 70.6584 53.108C70.9538 53.2784 71.3042 53.3636 71.7095 53.3636C71.9785 53.3636 72.2247 53.3258 72.4482 53.25C72.6716 53.1742 72.8629 53.0606 73.022 52.9091C73.1811 52.7576 73.3023 52.572 73.3857 52.3523L75.6243 52.5C75.5107 53.0379 75.2777 53.5076 74.9254 53.9091C74.5769 54.3068 74.1262 54.6174 73.5732 54.8409C73.0239 55.0606 72.3894 55.1705 71.6697 55.1705ZM80.4709 55.142C79.808 55.142 79.2076 54.9716 78.6697 54.6307C78.1357 54.286 77.7114 53.7803 77.397 53.1136C77.0864 52.4432 76.9311 51.6212 76.9311 50.6477C76.9311 49.6477 77.0921 48.8163 77.4141 48.1534C77.736 47.4867 78.1641 46.9886 78.6982 46.6591C79.236 46.3258 79.825 46.1591 80.4652 46.1591C80.9538 46.1591 81.361 46.2424 81.6868 46.4091C82.0163 46.572 82.2815 46.7765 82.4822 47.0227C82.6868 47.2652 82.8421 47.5038 82.9482 47.7386H83.022V43.3636H85.4368V55H83.0504V53.6023H82.9482C82.8345 53.8447 82.6735 54.0852 82.4652 54.3239C82.2607 54.5587 81.9936 54.7538 81.6641 54.9091C81.3383 55.0644 80.9406 55.142 80.4709 55.142ZM81.2379 53.2159C81.6281 53.2159 81.9576 53.1098 82.2266 52.8977C82.4993 52.6818 82.7076 52.3807 82.8516 51.9943C82.9993 51.608 83.0732 51.1553 83.0732 50.6364C83.0732 50.1174 83.0012 49.6667 82.8572 49.2841C82.7133 48.9015 82.505 48.6061 82.2322 48.3977C81.9595 48.1894 81.6281 48.0852 81.2379 48.0852C80.8402 48.0852 80.505 48.1932 80.2322 48.4091C79.9595 48.625 79.7531 48.9242 79.6129 49.3068C79.4728 49.6894 79.4027 50.1326 79.4027 50.6364C79.4027 51.1439 79.4728 51.5928 79.6129 51.983C79.7569 52.3693 79.9633 52.6723 80.2322 52.892C80.505 53.108 80.8402 53.2159 81.2379 53.2159ZM91.1754 55V43.3636H95.7663C96.6489 43.3636 97.4008 43.5322 98.022 43.8693C98.6432 44.2027 99.1167 44.6667 99.4425 45.2614C99.772 45.8523 99.9368 46.5341 99.9368 47.3068C99.9368 48.0795 99.7701 48.7614 99.4368 49.3523C99.1035 49.9432 98.6205 50.4034 97.9879 50.733C97.3591 51.0625 96.5978 51.2273 95.7038 51.2273H92.7777V49.2557H95.3061C95.7796 49.2557 96.1697 49.1742 96.4766 49.0114C96.7872 48.8447 97.0182 48.6155 97.1697 48.3239C97.325 48.0284 97.4027 47.6894 97.4027 47.3068C97.4027 46.9205 97.325 46.5833 97.1697 46.2955C97.0182 46.0038 96.7872 45.7784 96.4766 45.6193C96.166 45.4564 95.772 45.375 95.2947 45.375H93.6357V55H91.1754ZM101.489 55V46.2727H103.836V47.7955H103.927C104.086 47.2538 104.353 46.8447 104.728 46.5682C105.103 46.2879 105.535 46.1477 106.023 46.1477C106.145 46.1477 106.275 46.1553 106.415 46.1705C106.556 46.1856 106.679 46.2064 106.785 46.233V48.3807C106.671 48.3466 106.514 48.3163 106.313 48.2898C106.112 48.2633 105.929 48.25 105.762 48.25C105.406 48.25 105.088 48.3277 104.808 48.483C104.531 48.6345 104.311 48.8466 104.148 49.1193C103.989 49.392 103.91 49.7064 103.91 50.0625V55H101.489ZM111.573 55.1705C110.691 55.1705 109.927 54.983 109.283 54.608C108.643 54.2292 108.149 53.7027 107.8 53.0284C107.452 52.3504 107.278 51.5644 107.278 50.6705C107.278 49.7689 107.452 48.9811 107.8 48.3068C108.149 47.6288 108.643 47.1023 109.283 46.7273C109.927 46.3485 110.691 46.1591 111.573 46.1591C112.456 46.1591 113.217 46.3485 113.857 46.7273C114.501 47.1023 114.997 47.6288 115.346 48.3068C115.694 48.9811 115.869 49.7689 115.869 50.6705C115.869 51.5644 115.694 52.3504 115.346 53.0284C114.997 53.7027 114.501 54.2292 113.857 54.608C113.217 54.983 112.456 55.1705 111.573 55.1705ZM111.585 53.2955C111.986 53.2955 112.321 53.1818 112.59 52.9545C112.859 52.7235 113.062 52.4091 113.198 52.0114C113.338 51.6136 113.408 51.161 113.408 50.6534C113.408 50.1458 113.338 49.6932 113.198 49.2955C113.062 48.8977 112.859 48.5833 112.59 48.3523C112.321 48.1212 111.986 48.0057 111.585 48.0057C111.179 48.0057 110.838 48.1212 110.562 48.3523C110.289 48.5833 110.083 48.8977 109.942 49.2955C109.806 49.6932 109.738 50.1458 109.738 50.6534C109.738 51.161 109.806 51.6136 109.942 52.0114C110.083 52.4091 110.289 52.7235 110.562 52.9545C110.838 53.1818 111.179 53.2955 111.585 53.2955ZM117.442 46.2727H119.863V55.4318C119.863 56.1061 119.73 56.6515 119.465 57.0682C119.2 57.4848 118.819 57.7898 118.323 57.983C117.831 58.1761 117.242 58.2727 116.556 58.2727C116.473 58.2727 116.393 58.2708 116.317 58.267C116.238 58.267 116.155 58.2652 116.067 58.2614V56.3693C116.132 56.3731 116.189 56.375 116.238 56.375C116.283 56.3788 116.333 56.3807 116.386 56.3807C116.776 56.3807 117.049 56.2973 117.204 56.1307C117.363 55.9678 117.442 55.7216 117.442 55.392V46.2727ZM118.647 45.1477C118.291 45.1477 117.984 45.0284 117.727 44.7898C117.469 44.5473 117.34 44.2576 117.34 43.9205C117.34 43.5871 117.469 43.3011 117.727 43.0625C117.984 42.8201 118.291 42.6989 118.647 42.6989C119.011 42.6989 119.319 42.8201 119.573 43.0625C119.831 43.3011 119.96 43.5871 119.96 43.9205C119.96 44.2576 119.831 44.5473 119.573 44.7898C119.319 45.0284 119.011 45.1477 118.647 45.1477ZM125.779 55.1705C124.881 55.1705 124.109 54.9886 123.461 54.625C122.817 54.2576 122.321 53.7386 121.972 53.0682C121.624 52.3939 121.45 51.5966 121.45 50.6761C121.45 49.7784 121.624 48.9905 121.972 48.3125C122.321 47.6345 122.811 47.1061 123.444 46.7273C124.08 46.3485 124.826 46.1591 125.683 46.1591C126.258 46.1591 126.794 46.2519 127.29 46.4375C127.79 46.6193 128.226 46.8939 128.597 47.2614C128.972 47.6288 129.264 48.0909 129.472 48.6477C129.681 49.2008 129.785 49.8485 129.785 50.5909V51.2557H122.415V49.7557H127.506C127.506 49.4072 127.431 49.0985 127.279 48.8295C127.128 48.5606 126.917 48.3504 126.648 48.1989C126.383 48.0436 126.075 47.9659 125.722 47.9659C125.355 47.9659 125.029 48.0511 124.745 48.2216C124.465 48.3883 124.245 48.6136 124.086 48.8977C123.927 49.178 123.845 49.4905 123.842 49.8352V51.2614C123.842 51.6932 123.921 52.0663 124.08 52.3807C124.243 52.6951 124.472 52.9375 124.768 53.108C125.063 53.2784 125.414 53.3636 125.819 53.3636C126.088 53.3636 126.334 53.3258 126.558 53.25C126.781 53.1742 126.972 53.0606 127.131 52.9091C127.29 52.7576 127.412 52.572 127.495 52.3523L129.734 52.5C129.62 53.0379 129.387 53.5076 129.035 53.9091C128.686 54.3068 128.236 54.6174 127.683 54.8409C127.133 55.0606 126.499 55.1705 125.779 55.1705ZM135.308 55.1705C134.414 55.1705 133.645 54.9811 133.001 54.6023C132.361 54.2197 131.868 53.6894 131.523 53.0114C131.183 52.3333 131.012 51.553 131.012 50.6705C131.012 49.7765 131.184 48.9924 131.529 48.3182C131.878 47.6402 132.372 47.1117 133.012 46.733C133.652 46.3504 134.414 46.1591 135.296 46.1591C136.058 46.1591 136.724 46.2973 137.296 46.5739C137.868 46.8504 138.321 47.2386 138.654 47.7386C138.987 48.2386 139.171 48.8258 139.205 49.5H136.921C136.857 49.0644 136.686 48.714 136.41 48.4489C136.137 48.1799 135.779 48.0455 135.336 48.0455C134.961 48.0455 134.633 48.1477 134.353 48.3523C134.076 48.553 133.861 48.8466 133.705 49.233C133.55 49.6193 133.472 50.0871 133.472 50.6364C133.472 51.1932 133.548 51.6667 133.7 52.0568C133.855 52.447 134.073 52.7443 134.353 52.9489C134.633 53.1534 134.961 53.2557 135.336 53.2557C135.612 53.2557 135.861 53.1989 136.08 53.0852C136.304 52.9716 136.487 52.8068 136.631 52.5909C136.779 52.3712 136.876 52.108 136.921 51.8011H139.205C139.167 52.4678 138.986 53.0549 138.66 53.5625C138.338 54.0663 137.893 54.4602 137.325 54.7443C136.756 55.0284 136.084 55.1705 135.308 55.1705ZM145.397 46.2727V48.0909H140.141V46.2727H145.397ZM141.335 44.1818H143.755V52.3182C143.755 52.5417 143.789 52.7159 143.857 52.8409C143.925 52.9621 144.02 53.0473 144.141 53.0966C144.266 53.1458 144.41 53.1705 144.573 53.1705C144.687 53.1705 144.8 53.161 144.914 53.142C145.028 53.1193 145.115 53.1023 145.175 53.0909L145.556 54.892C145.435 54.9299 145.264 54.9735 145.045 55.0227C144.825 55.0758 144.558 55.108 144.244 55.1193C143.66 55.142 143.149 55.0644 142.71 54.8864C142.274 54.7083 141.935 54.4318 141.692 54.0568C141.45 53.6818 141.331 53.2083 141.335 52.6364V44.1818ZM154.126 48.7614L151.91 48.8977C151.872 48.7083 151.79 48.5379 151.665 48.3864C151.54 48.2311 151.376 48.108 151.171 48.017C150.97 47.9223 150.73 47.875 150.45 47.875C150.075 47.875 149.758 47.9545 149.501 48.1136C149.243 48.2689 149.114 48.4773 149.114 48.7386C149.114 48.947 149.198 49.1231 149.364 49.267C149.531 49.411 149.817 49.5265 150.222 49.6136L151.802 49.9318C152.65 50.1061 153.283 50.3864 153.7 50.7727C154.116 51.1591 154.325 51.6667 154.325 52.2955C154.325 52.8674 154.156 53.3693 153.819 53.8011C153.486 54.233 153.027 54.5701 152.444 54.8125C151.864 55.0511 151.196 55.1705 150.438 55.1705C149.283 55.1705 148.362 54.9299 147.677 54.4489C146.995 53.964 146.595 53.3049 146.478 52.4716L148.859 52.3466C148.931 52.6989 149.105 52.9678 149.381 53.1534C149.658 53.3352 150.012 53.4261 150.444 53.4261C150.868 53.4261 151.209 53.3447 151.467 53.1818C151.728 53.0152 151.861 52.8011 151.864 52.5398C151.861 52.3201 151.768 52.1402 151.586 52C151.404 51.8561 151.124 51.7462 150.745 51.6705L149.234 51.3693C148.381 51.1989 147.747 50.9034 147.33 50.483C146.917 50.0625 146.711 49.5265 146.711 48.875C146.711 48.3144 146.862 47.8314 147.165 47.4261C147.472 47.0208 147.902 46.7083 148.455 46.4886C149.012 46.2689 149.664 46.1591 150.41 46.1591C151.512 46.1591 152.379 46.392 153.012 46.858C153.648 47.3239 154.02 47.9583 154.126 48.7614Z" fill="white"/>
</svg>
