<svg width="109" height="59" viewBox="0 0 109 59" fill="none" xmlns="http://www.w3.org/2000/svg">
<path d="M43.5668 24.3182C41.8698 24.3182 40.3584 24.0265 39.0327 23.4432C37.7145 22.8523 36.6728 22.0417 35.9077 21.0114C35.1501 19.9735 34.7599 18.7765 34.7372 17.4205H39.6918C39.7221 17.9886 39.9077 18.4886 40.2486 18.9205C40.5971 19.3447 41.0592 19.6742 41.6349 19.9091C42.2107 20.1439 42.8584 20.2614 43.5781 20.2614C44.3281 20.2614 44.991 20.1288 45.5668 19.8636C46.1425 19.5985 46.5933 19.2311 46.919 18.7614C47.2448 18.2917 47.4077 17.75 47.4077 17.1364C47.4077 16.5152 47.2334 15.9659 46.8849 15.4886C46.544 15.0038 46.0516 14.625 45.4077 14.3523C44.7713 14.0795 44.0137 13.9432 43.1349 13.9432H40.9645V10.3295H43.1349C43.8774 10.3295 44.5327 10.2008 45.1009 9.94318C45.6766 9.68561 46.1236 9.32955 46.4418 8.875C46.7599 8.41288 46.919 7.875 46.919 7.26136C46.919 6.67803 46.7789 6.16667 46.4986 5.72727C46.2259 5.2803 45.8395 4.93182 45.3395 4.68182C44.8471 4.43182 44.2713 4.30682 43.6122 4.30682C42.9455 4.30682 42.3357 4.42803 41.7827 4.67045C41.2296 4.9053 40.7865 5.24242 40.4531 5.68182C40.1198 6.12121 39.9418 6.63636 39.919 7.22727H35.2031C35.2259 5.88636 35.6084 4.70454 36.3509 3.68182C37.0933 2.65909 38.0933 1.85985 39.3509 1.28409C40.616 0.700757 42.044 0.40909 43.6349 0.40909C45.241 0.40909 46.6463 0.700757 47.8509 1.28409C49.0554 1.86742 49.991 2.6553 50.6577 3.64773C51.3319 4.63258 51.6652 5.73864 51.6577 6.96591C51.6652 8.26894 51.2599 9.35606 50.4418 10.2273C49.6312 11.0985 48.5743 11.6515 47.2713 11.8864V12.0682C48.9834 12.2879 50.2865 12.8826 51.1804 13.8523C52.0819 14.8144 52.5289 16.0189 52.5213 17.4659C52.5289 18.7917 52.1463 19.9697 51.3736 21C50.6084 22.0303 49.5516 22.8409 48.2031 23.4318C46.8546 24.0227 45.3092 24.3182 43.5668 24.3182ZM63.0128 20.4545V4.36364H67.081V20.4545H63.0128ZM57.0014 14.4432V10.375H73.0923V14.4432H57.0014Z" fill="#FFB742"/>
<path d="M0.698864 55V43.3636H3.15909V48.1648H8.15341V43.3636H10.608V55H8.15341V50.1932H3.15909V55H0.698864ZM15.0795 55.1648C14.5227 55.1648 14.0265 55.0682 13.5909 54.875C13.1553 54.678 12.8106 54.3883 12.5568 54.0057C12.3068 53.6193 12.1818 53.1383 12.1818 52.5625C12.1818 52.0777 12.2708 51.6705 12.4489 51.3409C12.6269 51.0114 12.8693 50.7462 13.1761 50.5455C13.483 50.3447 13.8314 50.1932 14.2216 50.0909C14.6155 49.9886 15.0284 49.9167 15.4602 49.875C15.9678 49.822 16.3769 49.7727 16.6875 49.7273C16.9981 49.678 17.2235 49.6061 17.3636 49.5114C17.5038 49.4167 17.5739 49.2765 17.5739 49.0909V49.0568C17.5739 48.697 17.4602 48.4186 17.233 48.2216C17.0095 48.0246 16.6913 47.9261 16.2784 47.9261C15.8428 47.9261 15.4962 48.0227 15.2386 48.2159C14.9811 48.4053 14.8106 48.6439 14.7273 48.9318L12.4886 48.75C12.6023 48.2197 12.8258 47.7614 13.1591 47.375C13.4924 46.9848 13.9223 46.6856 14.4489 46.4773C14.9792 46.2652 15.5928 46.1591 16.2898 46.1591C16.7746 46.1591 17.2386 46.2159 17.6818 46.3295C18.1288 46.4432 18.5246 46.6193 18.8693 46.858C19.2178 47.0966 19.4924 47.4034 19.6932 47.7784C19.8939 48.1496 19.9943 48.5947 19.9943 49.1136V55H17.6989V53.7898H17.6307C17.4905 54.0625 17.303 54.303 17.0682 54.5114C16.8333 54.7159 16.5511 54.8769 16.2216 54.9943C15.892 55.108 15.5114 55.1648 15.0795 55.1648ZM15.7727 53.4943C16.1288 53.4943 16.4432 53.4242 16.7159 53.2841C16.9886 53.1402 17.2027 52.947 17.358 52.7045C17.5133 52.4621 17.5909 52.1875 17.5909 51.8807V50.9545C17.5152 51.0038 17.411 51.0492 17.2784 51.0909C17.1496 51.1288 17.0038 51.1648 16.8409 51.1989C16.678 51.2292 16.5152 51.2576 16.3523 51.2841C16.1894 51.3068 16.0417 51.3277 15.9091 51.3466C15.625 51.3883 15.3769 51.4545 15.1648 51.5455C14.9527 51.6364 14.7879 51.7595 14.6705 51.9148C14.553 52.0663 14.4943 52.2557 14.4943 52.483C14.4943 52.8125 14.6136 53.0644 14.8523 53.2386C15.0947 53.4091 15.4015 53.4943 15.7727 53.4943ZM21.8722 58.2727V46.2727H24.2585V47.7386H24.3665C24.4725 47.5038 24.6259 47.2652 24.8267 47.0227C25.0313 46.7765 25.2964 46.572 25.6222 46.4091C25.9517 46.2424 26.3608 46.1591 26.8494 46.1591C27.4858 46.1591 28.0729 46.3258 28.6108 46.6591C29.1487 46.9886 29.5786 47.4867 29.9006 48.1534C30.2225 48.8163 30.3835 49.6477 30.3835 50.6477C30.3835 51.6212 30.2263 52.4432 29.9119 53.1136C29.6013 53.7803 29.1771 54.286 28.6392 54.6307C28.1051 54.9716 27.5066 55.142 26.8438 55.142C26.3741 55.142 25.9744 55.0644 25.6449 54.9091C25.3191 54.7538 25.0521 54.5587 24.8438 54.3239C24.6354 54.0852 24.4763 53.8447 24.3665 53.6023H24.2926V58.2727H21.8722ZM24.2415 50.6364C24.2415 51.1553 24.3134 51.608 24.4574 51.9943C24.6013 52.3807 24.8097 52.6818 25.0824 52.8977C25.3551 53.1098 25.6866 53.2159 26.0767 53.2159C26.4706 53.2159 26.804 53.108 27.0767 52.892C27.3494 52.6723 27.5559 52.3693 27.696 51.983C27.84 51.5928 27.9119 51.1439 27.9119 50.6364C27.9119 50.1326 27.8419 49.6894 27.7017 49.3068C27.5616 48.9242 27.3551 48.625 27.0824 48.4091C26.8097 48.1932 26.4744 48.0852 26.0767 48.0852C25.6828 48.0852 25.3494 48.1894 25.0767 48.3977C24.8078 48.6061 24.6013 48.9015 24.4574 49.2841C24.3134 49.6667 24.2415 50.1174 24.2415 50.6364ZM31.9972 58.2727V46.2727H34.3835V47.7386H34.4915C34.5975 47.5038 34.7509 47.2652 34.9517 47.0227C35.1563 46.7765 35.4214 46.572 35.7472 46.4091C36.0767 46.2424 36.4858 46.1591 36.9744 46.1591C37.6108 46.1591 38.1979 46.3258 38.7358 46.6591C39.2737 46.9886 39.7036 47.4867 40.0256 48.1534C40.3475 48.8163 40.5085 49.6477 40.5085 50.6477C40.5085 51.6212 40.3513 52.4432 40.0369 53.1136C39.7263 53.7803 39.3021 54.286 38.7642 54.6307C38.2301 54.9716 37.6316 55.142 36.9688 55.142C36.4991 55.142 36.0994 55.0644 35.7699 54.9091C35.4441 54.7538 35.1771 54.5587 34.9688 54.3239C34.7604 54.0852 34.6013 53.8447 34.4915 53.6023H34.4176V58.2727H31.9972ZM34.3665 50.6364C34.3665 51.1553 34.4384 51.608 34.5824 51.9943C34.7263 52.3807 34.9347 52.6818 35.2074 52.8977C35.4801 53.1098 35.8116 53.2159 36.2017 53.2159C36.5956 53.2159 36.929 53.108 37.2017 52.892C37.4744 52.6723 37.6809 52.3693 37.821 51.983C37.965 51.5928 38.0369 51.1439 38.0369 50.6364C38.0369 50.1326 37.9669 49.6894 37.8267 49.3068C37.6866 48.9242 37.4801 48.625 37.2074 48.4091C36.9347 48.1932 36.5994 48.0852 36.2017 48.0852C35.8078 48.0852 35.4744 48.1894 35.2017 48.3977C34.9328 48.6061 34.7263 48.9015 34.5824 49.2841C34.4384 49.6667 34.3665 50.1174 34.3665 50.6364ZM43.3352 58.2727C43.0284 58.2727 42.7405 58.2481 42.4716 58.1989C42.2064 58.1534 41.9867 58.0947 41.8125 58.0227L42.358 56.2159C42.642 56.303 42.8977 56.3504 43.125 56.358C43.3561 56.3655 43.5549 56.3125 43.7216 56.1989C43.892 56.0852 44.0303 55.892 44.1364 55.6193L44.2784 55.25L41.1477 46.2727H43.6932L45.5 52.6818H45.5909L47.4148 46.2727H49.9773L46.5852 55.9432C46.4223 56.4129 46.2008 56.822 45.9205 57.1705C45.6439 57.5227 45.2936 57.7936 44.8693 57.983C44.4451 58.1761 43.9337 58.2727 43.3352 58.2727ZM65.2315 47.4375H62.7429C62.6974 47.1155 62.6046 46.8295 62.4645 46.5795C62.3243 46.3258 62.1444 46.1098 61.9247 45.9318C61.705 45.7538 61.4512 45.6174 61.1634 45.5227C60.8793 45.428 60.5705 45.3807 60.2372 45.3807C59.6349 45.3807 59.1103 45.5303 58.6634 45.8295C58.2164 46.125 57.8698 46.5568 57.6236 47.125C57.3774 47.6894 57.2543 48.375 57.2543 49.1818C57.2543 50.0114 57.3774 50.7083 57.6236 51.2727C57.8736 51.8371 58.2221 52.2633 58.669 52.5511C59.116 52.839 59.633 52.983 60.2202 52.983C60.5497 52.983 60.8546 52.9394 61.1349 52.8523C61.419 52.7652 61.6709 52.6383 61.8906 52.4716C62.1103 52.3011 62.2921 52.0947 62.4361 51.8523C62.5838 51.6098 62.6861 51.3333 62.7429 51.0227L65.2315 51.0341C65.1671 51.5682 65.0062 52.0833 64.7486 52.5795C64.4948 53.072 64.152 53.5133 63.7202 53.9034C63.2921 54.2898 62.7808 54.5966 62.1861 54.8239C61.5952 55.0473 60.9266 55.1591 60.1804 55.1591C59.1425 55.1591 58.2145 54.9242 57.3963 54.4545C56.5819 53.9848 55.938 53.3049 55.4645 52.4148C54.9948 51.5246 54.7599 50.447 54.7599 49.1818C54.7599 47.9129 54.9986 46.8333 55.4759 45.9432C55.9531 45.053 56.6009 44.375 57.419 43.9091C58.2372 43.4394 59.1577 43.2045 60.1804 43.2045C60.8546 43.2045 61.4796 43.2992 62.0554 43.4886C62.6349 43.678 63.1482 43.9545 63.5952 44.3182C64.0421 44.678 64.4058 45.1193 64.6861 45.642C64.9702 46.1648 65.152 46.7633 65.2315 47.4375ZM69.3707 43.3636V55H66.9503V43.3636H69.3707ZM71.3097 55V46.2727H73.7301V55H71.3097ZM72.5256 45.1477C72.1657 45.1477 71.857 45.0284 71.5994 44.7898C71.3456 44.5473 71.2188 44.2576 71.2188 43.9205C71.2188 43.5871 71.3456 43.3011 71.5994 43.0625C71.857 42.8201 72.1657 42.6989 72.5256 42.6989C72.8854 42.6989 73.1922 42.8201 73.446 43.0625C73.7036 43.3011 73.8324 43.5871 73.8324 43.9205C73.8324 44.2576 73.7036 44.5473 73.446 44.7898C73.1922 45.0284 72.8854 45.1477 72.5256 45.1477ZM79.6463 55.1705C78.7486 55.1705 77.9759 54.9886 77.3281 54.625C76.6842 54.2576 76.188 53.7386 75.8395 53.0682C75.491 52.3939 75.3168 51.5966 75.3168 50.6761C75.3168 49.7784 75.491 48.9905 75.8395 48.3125C76.188 47.6345 76.6785 47.1061 77.3111 46.7273C77.9474 46.3485 78.6937 46.1591 79.5497 46.1591C80.1255 46.1591 80.6615 46.2519 81.1577 46.4375C81.6577 46.6193 82.0933 46.8939 82.4645 47.2614C82.8395 47.6288 83.1312 48.0909 83.3395 48.6477C83.5478 49.2008 83.652 49.8485 83.652 50.5909V51.2557H76.2827V49.7557H81.3736C81.3736 49.4072 81.2978 49.0985 81.1463 48.8295C80.9948 48.5606 80.7846 48.3504 80.5156 48.1989C80.2505 48.0436 79.9418 47.9659 79.5895 47.9659C79.2221 47.9659 78.8963 48.0511 78.6122 48.2216C78.3319 48.3883 78.1122 48.6136 77.9531 48.8977C77.794 49.178 77.7126 49.4905 77.7088 49.8352V51.2614C77.7088 51.6932 77.7884 52.0663 77.9474 52.3807C78.1103 52.6951 78.3395 52.9375 78.6349 53.108C78.9304 53.2784 79.2808 53.3636 79.6861 53.3636C79.955 53.3636 80.2012 53.3258 80.4247 53.25C80.6482 53.1742 80.8395 53.0606 80.9986 52.9091C81.1577 52.7576 81.2789 52.572 81.3622 52.3523L83.6009 52.5C83.4872 53.0379 83.2543 53.5076 82.902 53.9091C82.5535 54.3068 82.1027 54.6174 81.5497 54.8409C81.0005 55.0606 80.366 55.1705 79.6463 55.1705ZM87.652 49.9545V55H85.2315V46.2727H87.5384V47.8125H87.6406C87.8338 47.3049 88.1577 46.9034 88.6122 46.608C89.0668 46.3087 89.6179 46.1591 90.2656 46.1591C90.8717 46.1591 91.4001 46.2917 91.8509 46.5568C92.3016 46.822 92.652 47.2008 92.902 47.6932C93.152 48.1818 93.277 48.7652 93.277 49.4432V55H90.8565V49.875C90.8603 49.3409 90.724 48.9242 90.4474 48.625C90.1709 48.322 89.7902 48.1705 89.3054 48.1705C88.9796 48.1705 88.6918 48.2405 88.4418 48.3807C88.1955 48.5208 88.0024 48.7254 87.8622 48.9943C87.7259 49.2595 87.6558 49.5795 87.652 49.9545ZM99.8267 46.2727V48.0909H94.571V46.2727H99.8267ZM95.7642 44.1818H98.1847V52.3182C98.1847 52.5417 98.2188 52.7159 98.2869 52.8409C98.3551 52.9621 98.4498 53.0473 98.571 53.0966C98.696 53.1458 98.84 53.1705 99.0028 53.1705C99.1165 53.1705 99.2301 53.161 99.3438 53.142C99.4574 53.1193 99.5445 53.1023 99.6051 53.0909L99.9858 54.892C99.8646 54.9299 99.6941 54.9735 99.4744 55.0227C99.2547 55.0758 98.9877 55.108 98.6733 55.1193C98.09 55.142 97.5786 55.0644 97.1392 54.8864C96.7036 54.7083 96.3646 54.4318 96.1222 54.0568C95.8797 53.6818 95.7604 53.2083 95.7642 52.6364V44.1818ZM108.555 48.7614L106.339 48.8977C106.302 48.7083 106.22 48.5379 106.095 48.3864C105.97 48.2311 105.805 48.108 105.601 48.017C105.4 47.9223 105.16 47.875 104.879 47.875C104.504 47.875 104.188 47.9545 103.93 48.1136C103.673 48.2689 103.544 48.4773 103.544 48.7386C103.544 48.947 103.627 49.1231 103.794 49.267C103.961 49.411 104.247 49.5265 104.652 49.6136L106.232 49.9318C107.08 50.1061 107.713 50.3864 108.129 50.7727C108.546 51.1591 108.754 51.6667 108.754 52.2955C108.754 52.8674 108.586 53.3693 108.249 53.8011C107.915 54.233 107.457 54.5701 106.874 54.8125C106.294 55.0511 105.625 55.1705 104.868 55.1705C103.713 55.1705 102.792 54.9299 102.107 54.4489C101.425 53.964 101.025 53.3049 100.908 52.4716L103.288 52.3466C103.36 52.6989 103.535 52.9678 103.811 53.1534C104.088 53.3352 104.442 53.4261 104.874 53.4261C105.298 53.4261 105.639 53.3447 105.896 53.1818C106.158 53.0152 106.29 52.8011 106.294 52.5398C106.29 52.3201 106.197 52.1402 106.016 52C105.834 51.8561 105.554 51.7462 105.175 51.6705L103.663 51.3693C102.811 51.1989 102.177 50.9034 101.76 50.483C101.347 50.0625 101.141 49.5265 101.141 48.875C101.141 48.3144 101.292 47.8314 101.595 47.4261C101.902 47.0208 102.332 46.7083 102.885 46.4886C103.442 46.2689 104.093 46.1591 104.839 46.1591C105.942 46.1591 106.809 46.392 107.442 46.858C108.078 47.3239 108.449 47.9583 108.555 48.7614Z" fill="white"/>
</svg>
