<?xml version="1.0" encoding="utf-8"?>
<!-- Generator: Adobe Illustrator 25.4.1, SVG Export Plug-In . SVG Version: 6.00 Build 0)  -->
<svg version="1.1" id="Capa_1" xmlns="http://www.w3.org/2000/svg" xmlns:xlink="http://www.w3.org/1999/xlink" x="0px" y="0px"
	 viewBox="0 0 36.7 23.6" style="enable-background:new 0 0 36.7 23.6;" xml:space="preserve">
<style type="text/css">
	.st0{fill:#FFB742;}
</style>
<path class="st0" d="M6,20V4h4.1V20H6z M0,14V10h16.1V14H0z M20.2,23.6V20l8.3-7.7c0.7-0.7,1.3-1.3,1.8-1.8c0.5-0.5,0.9-1.1,1.1-1.6
	c0.2-0.5,0.4-1.1,0.4-1.7c0-0.7-0.2-1.3-0.5-1.8c-0.3-0.5-0.7-0.9-1.3-1.1c-0.5-0.3-1.1-0.4-1.8-0.4c-0.7,0-1.3,0.1-1.9,0.4
	C25.7,4.6,25.3,5,25,5.6c-0.3,0.5-0.4,1.2-0.4,1.9h-4.7c0-1.5,0.3-2.8,1-4s1.7-2,2.9-2.6C25.1,0.3,26.5,0,28.2,0
	c1.7,0,3.1,0.3,4.4,0.9c1.2,0.6,2.2,1.4,2.9,2.4s1,2.2,1,3.6c0,0.9-0.2,1.7-0.5,2.6c-0.3,0.9-1,1.8-1.8,2.9c-0.9,1-2.1,2.3-3.7,3.7
	L27,19.4v0.2h9.8v4H20.2z"/>
</svg>
