<?xml version="1.0" encoding="utf-8"?>
<!-- Generator: Adobe Illustrator 25.4.1, SVG Export Plug-In . SVG Version: 6.00 Build 0)  -->
<svg version="1.1" id="Capa_1" xmlns="http://www.w3.org/2000/svg" xmlns:xlink="http://www.w3.org/1999/xlink" x="0px" y="0px"
	 viewBox="0 0 39.3 24.1" style="enable-background:new 0 0 39.3 24.1;" xml:space="preserve">
<style type="text/css">
	.st0{fill:#FFB742;}
</style>
<path class="st0" d="M6,20V4h4.1V20H6z M0,14V10h16.1V14H0z M29.9,24.1c-2,0-3.6-0.5-5-1.4c-1.4-1-2.5-2.3-3.2-4.1
	c-0.8-1.8-1.1-4-1.1-6.5c0-2.5,0.4-4.7,1.1-6.5c0.8-1.8,1.8-3.1,3.2-4.1C26.3,0.5,28,0,29.9,0c1.9,0,3.6,0.5,5,1.4
	c1.4,0.9,2.5,2.3,3.2,4.1c0.8,1.8,1.1,3.9,1.1,6.5c0,2.6-0.4,4.7-1.1,6.5c-0.8,1.8-1.8,3.2-3.2,4.1C33.6,23.6,31.9,24.1,29.9,24.1z
	 M29.9,20c1.3,0,2.4-0.7,3.2-2c0.8-1.3,1.2-3.4,1.2-6c0-1.8-0.2-3.2-0.5-4.4c-0.4-1.2-0.9-2.1-1.5-2.6C31.6,4.3,30.8,4,29.9,4
	c-1.3,0-2.4,0.7-3.2,2c-0.8,1.3-1.2,3.3-1.2,6c0,1.8,0.2,3.3,0.5,4.5c0.4,1.2,0.9,2.1,1.5,2.7C28.3,19.7,29,20,29.9,20z"/>
</svg>
